{"title":"Bronson 2009 720p BRRip x264 Feel-Free","uid":6078085,"size":1848993550,"categoryP":"video","categoryS":"hd___movies","magnet":"?xt=urn:btih:0661bc89af61b77e45415c9fa029eb88c664a277&amp;dn=Bronson+2009+720p+BRRip+x264+Feel-Free&amp;tr=udp%3A%2F%2Ftracker.openbittorrent.com%3A80&amp;tr=udp%3A%2F%2Fopen.demonii.com%3A1337&amp;tr=udp%3A%2F%2Ftracker.coppersurfer.tk%3A6969&amp;tr=udp%3A%2F%2Fexodus.desync.com%3A6969","seeders":0,"leechers":1,"uploader":"neon","files":-1,"time":1293978508,"description":"Genre:Action | Biography | Crime \nLanguage:English\n &lt;a href=&quot; http://www.imdb.com/title/tt1172570/&quot; rel=&quot;nofollow&quot; target=&quot;_NEW&quot;&gt; http://www.imdb.com/title/tt1172570/&lt;/a&gt;\nSource:BluRay DD5.1 x264-DON\nSubtitles:Romana\n\n\nFormat                           : Matroska\nFile size                        : 1.72 GiB\nDuration                         : 1h 32mn\nOverall bit rate                 : 2 660 Kbps\n\n\n\nVideo\nFormat settings, CABAC           : Yes\nFormat settings, ReFrames        : 4 frames\nFormat settings, GOP             : M=1, N=16\nCodec ID                         : V_MPEG4/ISO/AVC\nDuration                         : 1h 32mn\nBit rate                         : 2 300 Kbps\nWidth                            : 1 280 pixels\nHeight                           : 692 pixels\nDisplay aspect ratio             : 1.850\nFrame rate mode                  : Variable\nFrame rate                       : 24.000 fps\nColor space                      : YUV\nChroma subsampling               : 4:2:0\nBit depth                        : 8 bits\nScan type                        : Progressive\nBits/(Pixel*Frame)               : 0.108\nStream size                      : 1.44 GiB (84%)\nWriting library                  : x264\n\n\nAudio\nID                               : 2\nFormat                           : AC-3\nFormat/Info                      : Audio Coding 3\nMode extension                   : CM (complete main)\nCodec ID                         : A_AC3\nDuration                         : 1h 32mn\nBit rate mode                    : Constant\nBit rate                         : 384 Kbps\nChannel(s)                       : 6 channels\nChannel positions                : Front: L C R, Side: L R, LFE\nSampling rate                    : 48.0 KHz\nBit depth                        : 16 bits\nVideo delay                      : -1mn 5s\nStream size                      : 254 MiB (14%)\nLanguage                         : English\n\n   \nPlot:\n A young man who was sentenced to 7 years on prison for robbing a post office ends up spending 30 years in solitary confinement. During this time, his own personality is supplanted by his alter ego, Charles Bronson\n","torrent":{"xt":"urn:btih:0661bc89af61b77e45415c9fa029eb88c664a277","amp;dn":"Bronson+2009+720p+BRRip+x264+Feel-Free","amp;tr":["udp%3A%2F%2Ftracker.openbittorrent.com%3A80","udp%3A%2F%2Fopen.demonii.com%3A1337","udp%3A%2F%2Ftracker.coppersurfer.tk%3A6969","udp%3A%2F%2Fexodus.desync.com%3A6969"],"infoHash":"0661bc89af61b77e45415c9fa029eb88c664a277","infoHashBuffer":{"type":"Buffer","data":[6,97,188,137,175,97,183,126,69,65,92,159,160,41,235,136,198,100,162,119]},"announce":[],"urlList":[]}}